<svg width="220" height="220" xmlns="http://www.w3.org/2000/svg" class="svg-graph" id="svg-graph">
 <g>
  <title>Layer 1</title>
  <line id="svg_1" stroke="black" y2="110" x2="210" y1="110" x1="10" class="axis"/>
  <polygon id="svg_2" points="210,110 200,105 200,115 "/>
  <line id="svg_3" stroke="black" y2="210" x2="110" y1="10" x1="110" class="axis"/>
  <polygon id="svg_4" points="110,9 105,20 115,20 "/>
  <line id="svg_5" stroke="black" y2="115" x2="43" y1="105" x1="43" class="coordinate-line"/>
  <text id="minus_rx" font-size="14" y="100" x="33" class="coordinate-text coordinate-text_minus-Rx">-R</text>
  <line id="svg_7" stroke="black" y2="115" x2="76" y1="105" x1="76" class="coordinate-line"/>
  <text id="minus_halfrx" font-size="14" y="100" x="66" class="coordinate-text coordinate-text_minus-half-Rx">-R/2</text>
  <line id="svg_9" stroke="black" y2="115" x2="143" y1="105" x1="143" class="coordinate-line"/>
  <text id="halfrx" font-size="14" y="100" x="138" class="coordinate-text coordinate-text_plus-half-Rx">R/2</text>
  <line id="svg_11" stroke="black" y2="115" x2="176" y1="105" x1="176" class="coordinate-line"/>
  <text id="rx" font-size="14" y="100" x="171" class="coordinate-text coordinate-text_plus-Rx">R</text>
  <line id="svg_13" stroke="black" y2="176" x2="115" y1="176" x1="105" class="coordinate-line"/>
  <text id="minus_ry" font-size="14" y="181" x="120" class="coordinate-text coordinate-text_minus-Ry">-R</text>
  <line id="svg_15" stroke="black" y2="143" x2="115" y1="143" x1="105" class="coordinate-line"/>
  <text id="minus_halfry" font-size="14" y="148" x="120" class="coordinate-text coordinate-text_minus-half-Ry">-R/2</text>
  <line id="svg_17" stroke="black" y2="76" x2="115" y1="76" x1="105" class="coordinate-line"/>
  <text id="halfry" font-size="14" y="81" x="120" class="coordinate-text coordinate-text_plus-half-Ry">R/2</text>
  <line id="svg_19" stroke="black" y2="43" x2="115" y1="43" x1="105" class="coordinate-line"/>
  <text id="ry" font-size="14" y="48" x

          ="120" class="coordinate-text coordinate-text_plus-Ry">R</text>
  <polygon transform="rotate(-90 93 143)" id="svg_24" stroke-opacity="0.5" fill-opacity="0.3" fill="#6E7CFF" points="60,160 126,160 126,126 " class="svg-figure triangle-figure" stroke="#6E7CFF"/>
  <polygon stroke="#6E7CFF" id="svg_22" stroke-opacity="0.5" fill-opacity="0.3" fill="#6E7CFF" points="43,76 110,76 110,110 43,110 " class="svg-figure rectangle-figure"/>
  <path stroke="#6E7CFF" fill-opacity="0.3" id="svg_23" stroke-opacity="0.5" fill="#6E7CFF" d="m110,176a66,66 0 0 0 66,-66l-66,0l0,66z" class="svg-figure circle-figure"/>
  <circle fill="none" stroke="black" r="1" cy="999" cx="999" id="point"/>
 </g>

</svg>